<svg xmlns="http://www.w3.org/2000/svg" width="108" height="108" viewBox="0 0 108 108">
    <g fill="none" fill-rule="evenodd" transform="translate(2 2)">
        <path fill="#F2C433" fill-rule="nonzero" d="M49.632 19.972l-9.88 35c-.031.117-.002.242.079.333.08.09.201.135.321.117l9.72-1.36c.116-.015.232.026.312.112.079.085.112.204.088.318l-7.9 38.28c-.026.172.075.338.24.395.164.056.345-.013.43-.165l26.9-52.46c.06-.118.05-.258-.025-.367-.075-.108-.203-.167-.335-.153l-7.91.78c-.128.01-.252-.048-.327-.152-.075-.103-.092-.24-.043-.358l9.6-22c.051-.118.035-.253-.04-.356-.077-.103-.202-.158-.33-.144l-20.59 2c-.127.003-.244.07-.31.18z"/>
        <path stroke="#31295C" stroke-width="3.27" d="M45.892 16.242l-9.88 34.94c-.031.117-.002.242.079.333.08.09.201.135.321.117l9.72-1.36c.116-.015.232.026.312.112.079.085.112.204.088.318l-7.9 38.28c-.026.172.075.338.24.395.164.056.345-.013.43-.165l26.9-52.46c.06-.118.05-.258-.025-.367-.075-.108-.203-.167-.335-.153l-7.91.78c-.128.01-.252-.048-.327-.152-.075-.103-.092-.24-.043-.358l9.6-22c.051-.118.035-.253-.04-.356-.077-.103-.202-.158-.33-.144l-20.59 2c-.143.007-.267.103-.31.24z"/>
        <circle cx="52" cy="52" r="52" stroke="#31295C" stroke-width="4"/>
    </g>
</svg>
