<svg xmlns="http://www.w3.org/2000/svg" width="1920" height="1043" viewBox="0 0 1920 1043">
    <g fill="none" fill-rule="evenodd">
        <path fill="#F7FCFF" d="M0 0H1920V1040H0z"/>
        <g fill="#FFF3DB" fill-rule="nonzero" transform="rotate(180 960 520)">
            <path d="M122.113 371.882C66.13 454.423 8.248 542.17.406 642.392c-1.344 16.834.059 36.445 13.346 46.436 18.771 14.076 44.654-1.549 61.808-17.653 57.532-53.948 104.368-118.656 155.86-178.719 51.492-60.062 109.56-116.937 181.1-148.756 9.887-4.406 24.012-6.994 29.223 2.737 4.12 7.712-1.188 16.984-6.39 23.977-56.967 76.516-125.925 142.583-188.65 214.184-47.475 54.185-91.391 111.542-131.457 171.695-16.823 25.275-33.452 52.35-36.306 82.814 18.158.246 33.49-13.111 46.524-26.089C294.387 644.87 392.852 413.542 560.158 243.626c11.29-11.46 30.704-22.519 41-10.12 7.862 9.47 1.89 23.896-4.626 34.386-42.862 68.934-100.725 126.719-145.778 194.134-3.897 5.804-7.715 13.527-3.955 19.421 5.124 7.992 17.271 3.337 24.86-2.278 82.859-61.37 143.985-148.347 199.12-236.602 18.217-29.142 36.092-58.944 47.05-91.662 4.355-12.988 7.122-28.822-1.46-39.402-10.872-13.387-31.708-9.251-47.362-2.478-67.02 28.972-120.344 83.27-168.417 139.266-16.024 18.662-32.419 38.263-54.55 48.474-4.394 1.998-9.742 3.586-13.833.919-6.42-4.206-4.024-14.237-.897-21.36l18.177-41.36c2.63-5.994 5.095-13.517 1.043-18.582-5.095-6.384-15.09-2.797-21.976 1.459-47.781 29.501-88.84 68.933-129.559 108.076L77.771 538.792c-6.955 6.703-20.797 11.908-23.622 2.557l104.163-159.466c6.176-9.451 10.618-25.446.243-29.472-4.09-1.588-8.66-.05-12.615 1.848-12.068 5.808-22.348 14.904-29.72 26.295M467.147 653.857c-21.43 32.598-43.748 67.655-44.488 106.997-.078 4.576.419 9.77 3.896 12.618 6.118 4.995 14.71-1.249 20.028-7.123 40.787-44.957 81.544-91.223 132.101-124.21 17.759-11.59 36.91-21.56 57.58-25.706 6.216-1.239 12.82-1.918 18.762.35 15.021 5.744 18.051 26.164 16.327 42.509-6.527 61.57-44.527 114.58-62.013 173.832-1.617 5.475-2.698 12.369 1.52 16.115 5.464 4.835 13.696-.27 18.937-5.355 43.402-42.257 77.791-93.282 100.997-149.856 2.523-6.164 4.939-12.987 2.98-19.371-.444-1.803-1.541-3.364-3.068-4.366-3.77-2.128-8.046 1.618-10.793 4.995l-53.178 65.627 20.671-61.94c6.07-18.163 12.128-38.124 5.563-56.096-8.914-24.397-38.469-34.967-63.582-30.97-29.058 4.595-53.869 23.577-75.874 43.567-22.006 19.991-43.105 41.96-69.65 54.948-2.318 1.129-5.27 2.128-7.257.46-2.513-2.119-1.12-6.235.428-9.162 9.49-17.978 17.61-36.683 24.285-55.946 2.134-6.154 4.15-12.608 3.458-19.112-.691-6.504-4.782-12.987-10.978-14.366-4.48-.999-9.079.78-13.17 2.887-10.881 5.605-20.379 13.697-29.224 22.319-14.527 14.19-27.496 29.968-38.673 47.055-4.208 6.423-8.153 15.145-3.711 21.409 11.008-5.375 18.956-15.455 27.558-24.317 8.601-8.861 19.249-17.143 31.445-17.103-.935 5.26-3.042 10.228-6.157 14.516M1743.72 689.027c-26.302 24.407-54.474 52.29-57.903 88.535-.623 6.584.643 14.806 6.722 16.984 4.452 1.628 9.254-.94 13.21-3.607 26.904-18.222 47.361-45.785 75.98-61.09 4.375-2.339 9.177-4.427 14.096-3.927 4.92.5 9.82 4.436 9.859 9.5 0 2.798-1.364 5.376-2.767 7.763-17.787 30.571-43.037 55.657-66.338 82.042-25.918 29.357-49.658 60.66-71.023 93.65-17.145 26.474-33.12 55.366-35.069 87.096-.818 13.866 4.082 31.24 17.466 33.398 8.017 1.298 15.586-3.687 22.093-8.682 52.954-40.82 92.63-98.505 148.73-134.62 3.72-2.398 8.699-4.666 12.215-1.999 2.426 1.869 2.923 5.345 2.923 8.462-.078 32.879-36.774 53.449-45.54 85.068-1.472 5.315-.829 12.878 4.451 13.987 40.706-40.782 78.99-84.032 114.645-129.516 6.575-8.381 13.443-18.292 11.621-28.882-2.513-14.546-20.164-20.98-34.396-18.752-21.246 3.387-38.42 18.982-53.928 34.267-31.789 31.304-62.198 63.969-91.227 97.996-18.508 21.75-38.643 45.386-66.24 51.12 41.38-92.58 119.944-161.504 175.615-245.833 10.647-16.124 20.603-33.188 24.87-52.16 1.178-5.244 1.86-10.989-.322-15.854-5.221-11.729-21.81-10.84-33.558-6.244-43.29 16.983-75.135 57.225-118.844 72.93-1.061.39-2.328.729-3.263.08-1.461-1-.867-3.297-.117-4.926 11.467-24.786 25.23-48.385 41.098-70.472-6.312-1.708-13.53 3.047-14.611 9.64"/>
            <path stroke="#FFF" stroke-linecap="round" stroke-linejoin="round" stroke-width="3.09" d="M1643.287 174.193s10.092 39.741-15.391 39.741c.526 1.09 23.379 0 21.762 34.297 1.062 0-5.309-36.475 11.69-37.014-.01 0-13.814 2.717-18.06-37.024zM98.91 41.61s10.082 39.742-15.401 39.742c.536 1.089 23.379 0 21.771 34.307 1.062 0-5.308-36.485 11.69-37.025-.039 0-13.813 2.718-18.06-37.024zM236.427 148.797s10.092 39.752-15.391 39.752c.526 1.089 23.379 0 21.762 34.297 1.061 0-5.31-36.475 11.69-37.025-.01 0-13.843 2.728-18.061-37.024z"/>
            <path stroke="#FFF" stroke-linecap="round" stroke-linejoin="round" stroke-width="4.97" d="M1707.93 0s16.239 63.939-24.782 63.939c.858 1.748 37.602 0 35.069 55.206 1.705 0-8.553-58.713 18.79-59.592-.028.04-22.239 4.425-29.077-59.553z"/>
            <ellipse cx="1058.208" cy="212.975" rx="10.316" ry="10.58"/>
            <ellipse cx="1060.877" cy="256.773" rx="5.017" ry="5.145"/>
            <ellipse cx="943.719" cy="541.809" rx="5.017" ry="5.145"/>
            <ellipse cx="1560.506" cy="160.086" rx="5.017" ry="5.145"/>
            <ellipse cx="1566.351" cy="204.913" rx="11.504" ry="11.799"/>
            <ellipse cx="995.251" cy="226.183" rx="7.501" ry="7.693"/>
            <ellipse cx="880.801" cy="579.263" rx="7.501" ry="7.693"/>
            <ellipse cx="1781.925" cy="576.086" rx="7.501" ry="7.693"/>
            <ellipse cx="1769.544" cy="614.169" rx="7.501" ry="7.693"/>
            <ellipse cx="889.052" cy="505.983" rx="20.437" ry="20.96"/>
            <ellipse cx="376.032" cy="842.21" rx="20.437" ry="20.96"/>
            <ellipse cx="1834.031" cy="606.117" rx="14.846" ry="15.225"/>
            <path d="M888.282 13.997c-5.583 8.013-7.096 18.28-4.072 27.629 3.023 9.348 10.22 16.652 19.366 19.655 4.604 1.655 9.559 2 14.339 1 5.134-1.32 9.396-4.979 11.563-9.931 4.607-10.17 1.821-21.5-2.923-31.03-2.435-4.826-5.844-9.851-10.793-12.159-5.309-2.467-11.69-2.218-16.054 2.108-1.71 1.758-1.708 4.604.005 6.36 1.714 1.754 4.49 1.751 6.2-.006.157-.16.332-.3.488-.47 0 .05-.624.42-.215.2.41-.22.673-.4.975-.59-.897.52.185 0 .506-.109.166 0 .331-.06.497-.11.497-.14-.838 0 0 0H909.625h.098c.453.086.902.196 1.344.33.156 0 .321.13.487.17.497.12-.663-.37.068 0 .36.19.72.38 1.062.599.34.22 1.169.82.545.32.814.658 1.56 1.397 2.231 2.208.175.2.331.41.507.609 0-.06-.38-.54-.088-.12.292.42.545.76.799 1.149.584.9 1.12 1.828 1.627 2.777.506.95.886 1.699 1.295 2.568.244.52.477.999.711 1.558l.107.26c-.185-.45.234.58.263.67.772 2.012 1.391 4.083 1.851 6.194.107.49.195.999.283 1.468.048.25.204 1.559.117.7.124 1.114.186 2.235.185 3.356 0 .49 0 1-.059 1.459 0 .27-.175 1.538 0 .67-.167 1.097-.417 2.179-.75 3.236-.058.2-.126.397-.204.59 0 .11-.351.919-.156.45.195-.47-.078.169-.098.199l-.34.7c-.215.399-.439.798-.673 1.178-.146.22-.302.43-.428.65-.351.569.633-.72-.137.16-.292.339-.594.669-.915.998-.322.33-1.082.9-.41.41-.36.26-.73.51-1.11.73-.224.13-.458.249-.692.359-.613.32.858-.24-.321.11-.477.14-.974.28-1.432.38-.205 0-.41.08-.624.12.195 0 .8-.06-.087 0-1.008.08-2.02.098-3.03.05-.419 0-.837-.06-1.256-.1-.838-.07-.069 0 .087 0l-.71-.12c-.89-.16-1.772-.368-2.64-.62-.877-.26-1.715-.59-2.563-.91.8.3-.155-.079-.448-.219-.438-.21-.867-.44-1.286-.68-.796-.442-1.57-.925-2.318-1.448-.156-.11-1.12-.809-.73-.52.39.29-.069-.06-.127-.11l-.692-.589c-.682-.606-1.332-1.25-1.948-1.928-.292-.31-.575-.64-.848-.999l-.34-.42c-.74-.909.272.44-.088-.12-.478-.719-.974-1.418-1.393-2.167-.214-.373-.42-.753-.614-1.14-.117-.219-.224-.449-.331-.668-.107-.22-.468-1.07-.244-.53.224.54 0-.11-.058-.17-.117-.3-.224-.6-.322-.909-.185-.55-.35-1.099-.496-1.658-.254-.988-.459-1.988-.614-2.997.166.999 0-.67-.058-.92 0-.51-.059-.999-.059-1.538-.005-1.094.044-2.188.146-3.277 0-.2.146-.87 0 0l.117-.77c.097-.569.224-1.138.35-1.698.266-1.06.591-2.104.975-3.127.068-.18.146-.36.204-.539.186-.49-.292.59.088-.17.224-.45.429-.919.672-1.369.539-1.02 1.144-2.001 1.812-2.937 1.286-1.818.312-4.965-1.636-6.064-2.1-1.18-4.732-.469-5.991 1.619h-.01zM1737.534 412.403c-2.528 5.187-3.617 10.986-3.147 16.764.273 2.878.663 6.284 2.25 8.762 2.036 3.177 5.3 3.776 8.768 4.076 5.055.44 10.715-.4 14.407-4.376 3.599-4.136 4.688-9.967 2.835-15.175-2.173-6.114-7.248-9.99-12.985-12.328-2.143-.86-4.871.939-5.387 3.137-.576 2.385.767 4.816 3.058 5.534.77.31 0 0-.107-.06.218.072.428.169.624.29.409.2.808.41 1.208.63.789.454 1.55.958 2.28 1.508-.829-.62.204.2.418.4s.643.639.974.999c.156.17.292.34.438.52.147.179.507.329-.068-.1.34.381.614.82.809 1.298.117.2.331.92.526 1.059-.331-.23-.263-.72-.107-.18.058.21.136.41.185.62.048.21.37.999.273 1.268.126-.36-.059-.809 0-.23v.8c0 .44 0 .859-.059 1.289 0 .629.185-.85 0-.24-.058.2-.088.41-.136.62-.049.209-.137.918-.322 1.058.224-.17.35-.73.068-.21-.146.28-.302.55-.448.82-.058.11-.263.58 0 .06s0 0-.146.16-.282.31-.428.459c-.147.15-.643.57-.195.19.448-.38-.107.06-.224.15s-.38.23-.575.34c0 0-.429.24-.438.23.496-.2.594-.25.292-.13-.153.065-.309.121-.468.17-.421.145-.85.265-1.286.359-.077 0-.652.14-.662.13-.01-.01.867-.09.331 0-.974.08-1.948.13-2.922.11-.974-.02-1.832-.12-2.747-.21-.643-.07 0 .14.136 0 0 0-.438-.08-.506-.1-.069-.02-.867-.21-.302 0 .311.15.282.13-.088-.07l.36.27c.575.729.205.28.078.1-.574-.83.078.15 0 .12s-.36-1.21-.399-1.39c-.127-.499-.234-.998-.331-1.528 0-.26-.088-.52-.127-.78-.146-.868 0 .39 0-.159-.058-1.179-.165-2.348-.136-3.537 0-.579 0-1.168.097-1.758l.088-.78c-.078.65 0 .25 0-.169.193-1.162.46-2.31.799-3.437.175-.56.37-1.109.565-1.668.058-.16.33-.78 0 0 .165-.36.321-.72.487-1.069.974-2.118.633-4.995-1.569-6.154-1.948-1.059-4.929-.65-6 1.618l-.04-.08zM59.458 869.734c-3.06 1.878-3.897 5.994-2.747 9.27.575 1.758 1.724 3.258 3.253 4.247 1.738 1.028 3.777 1.382 5.748.999 4.038-.761 7.29-3.836 8.358-7.903 1.032-4.156-.322-8.991-3.897-11.389-3.883-2.602-9.07-1.652-11.836 2.168-.266.464-.27 1.039-.012 1.507.259.469.742.76 1.267.764.525.005 1.012-.278 1.278-.742 1.48-2.168 4.637-2.628 6.897-1.629 2.796 1.24 3.984 4.606 3.663 7.533-.362 2.943-2.31 5.425-5.037 6.414-2.503.899-5.22.31-6.497-1.998-1.276-2.308-1.062-5.345 1.052-6.644.453-.273.729-.773.724-1.311-.004-.538-.288-1.033-.745-1.299-.457-.265-1.017-.26-1.47.013z"/>
        </g>
    </g>
</svg>
