<svg xmlns="http://www.w3.org/2000/svg" width="696" height="354" viewBox="0 0 696 354">
    <path fill="#F2C433" d="M903.566 57.547c-169.924 61.755-329.745 148.382-474.241 257.05 7.614-42.727 8.828-86.35 3.6-129.435-59.44 30.073-115.294 66.764-166.5 109.374.063-38.3-11.916-75.65-34.243-106.77C94.098 256.236 67.654 286.773.39 353.473 66.587 255.2 144.034 164.992 231.157 84.683c29.812 29.33 54.714 63.262 73.752 100.497C361.29 118.17 423.507 56.298 490.828.29l60.162 138.968c90.635-85.002 184.227-166.684 280.777-245.049C872.605-59.596 909.32-9.913 941.49 42.688l-14.593 6.268"/>
</svg>
